<mxfile host="app.diagrams.net" agent="Mozilla/5.0 (Windows NT 10.0; Win64; x64) AppleWebKit/537.36 (KHTML, like Gecko) Chrome/130.0.0.0 Safari/537.36 Edg/130.0.0.0" version="24.7.7" pages="2">
  <diagram name="Ex2_Triangle" id="oyzXWK52f0JlwLLJVB0y">
    <mxGraphModel dx="302" dy="918" grid="1" gridSize="10" guides="1" tooltips="1" connect="1" arrows="1" fold="1" page="0" pageScale="1" pageWidth="850" pageHeight="1100" math="0" shadow="0">
      <root>
        <mxCell id="0" />
        <mxCell id="1" parent="0" />
        <mxCell id="XnaCu03kMr7z5BegtF6O-25" value="" style="group" vertex="1" connectable="0" parent="1">
          <mxGeometry x="150" y="310" width="160" height="220" as="geometry" />
        </mxCell>
        <mxCell id="XnaCu03kMr7z5BegtF6O-18" value="" style="rounded=0;whiteSpace=wrap;html=1;fillColor=none;" vertex="1" parent="XnaCu03kMr7z5BegtF6O-25">
          <mxGeometry width="160" height="220" as="geometry" />
        </mxCell>
        <mxCell id="XnaCu03kMr7z5BegtF6O-19" value="Triangle" style="swimlane;fontStyle=1;align=center;verticalAlign=top;childLayout=stackLayout;horizontal=1;startSize=26;horizontalStack=0;resizeParent=1;resizeParentMax=0;resizeLast=0;collapsible=1;marginBottom=0;whiteSpace=wrap;html=1;" vertex="1" parent="XnaCu03kMr7z5BegtF6O-25">
          <mxGeometry x="10" y="10" width="140" height="200" as="geometry" />
        </mxCell>
        <mxCell id="XnaCu03kMr7z5BegtF6O-20" value="+ A: Point&lt;div&gt;+ B: Point&lt;/div&gt;&lt;div&gt;+ C: Point&lt;/div&gt;" style="text;strokeColor=none;fillColor=none;align=left;verticalAlign=top;spacingLeft=4;spacingRight=4;overflow=hidden;rotatable=0;points=[[0,0.5],[1,0.5]];portConstraint=eastwest;whiteSpace=wrap;html=1;" vertex="1" parent="XnaCu03kMr7z5BegtF6O-19">
          <mxGeometry y="26" width="140" height="54" as="geometry" />
        </mxCell>
        <mxCell id="XnaCu03kMr7z5BegtF6O-21" value="" style="line;strokeWidth=1;fillColor=none;align=left;verticalAlign=middle;spacingTop=-1;spacingLeft=3;spacingRight=3;rotatable=0;labelPosition=right;points=[];portConstraint=eastwest;strokeColor=inherit;" vertex="1" parent="XnaCu03kMr7z5BegtF6O-19">
          <mxGeometry y="80" width="140" height="8" as="geometry" />
        </mxCell>
        <mxCell id="XnaCu03kMr7z5BegtF6O-22" value="&lt;div&gt;+ input(): void&lt;/div&gt;&lt;div&gt;+ isValidTriangle(): bool&lt;/div&gt;&lt;div&gt;+ output(): void&lt;/div&gt;&lt;div&gt;+ type(): string&lt;/div&gt;&lt;div&gt;+ perimeter(): double&lt;/div&gt;&lt;div&gt;+ area(): double&lt;/div&gt;&lt;div&gt;+ center(): Point&lt;/div&gt;" style="text;strokeColor=none;fillColor=none;align=left;verticalAlign=top;spacingLeft=4;spacingRight=4;overflow=hidden;rotatable=0;points=[[0,0.5],[1,0.5]];portConstraint=eastwest;whiteSpace=wrap;html=1;" vertex="1" parent="XnaCu03kMr7z5BegtF6O-19">
          <mxGeometry y="88" width="140" height="112" as="geometry" />
        </mxCell>
        <mxCell id="MtnGRKiRUojX5UHZUK15-1" value="" style="group" vertex="1" connectable="0" parent="1">
          <mxGeometry x="150" y="-10" width="220" height="270" as="geometry" />
        </mxCell>
        <mxCell id="XnaCu03kMr7z5BegtF6O-9" value="" style="rounded=0;whiteSpace=wrap;html=1;fillColor=none;" vertex="1" parent="MtnGRKiRUojX5UHZUK15-1">
          <mxGeometry width="220" height="270" as="geometry" />
        </mxCell>
        <mxCell id="XnaCu03kMr7z5BegtF6O-5" value="Point" style="swimlane;fontStyle=1;align=center;verticalAlign=top;childLayout=stackLayout;horizontal=1;startSize=26;horizontalStack=0;resizeParent=1;resizeParentMax=0;resizeLast=0;collapsible=1;marginBottom=0;whiteSpace=wrap;html=1;" vertex="1" parent="MtnGRKiRUojX5UHZUK15-1">
          <mxGeometry x="10" y="10" width="200" height="250" as="geometry" />
        </mxCell>
        <mxCell id="XnaCu03kMr7z5BegtF6O-6" value="+ x: double&lt;div&gt;+ y: double&lt;/div&gt;" style="text;strokeColor=none;fillColor=none;align=left;verticalAlign=top;spacingLeft=4;spacingRight=4;overflow=hidden;rotatable=0;points=[[0,0.5],[1,0.5]];portConstraint=eastwest;whiteSpace=wrap;html=1;" vertex="1" parent="XnaCu03kMr7z5BegtF6O-5">
          <mxGeometry y="26" width="200" height="44" as="geometry" />
        </mxCell>
        <mxCell id="XnaCu03kMr7z5BegtF6O-7" value="" style="line;strokeWidth=1;fillColor=none;align=left;verticalAlign=middle;spacingTop=-1;spacingLeft=3;spacingRight=3;rotatable=0;labelPosition=right;points=[];portConstraint=eastwest;strokeColor=inherit;" vertex="1" parent="XnaCu03kMr7z5BegtF6O-5">
          <mxGeometry y="70" width="200" height="8" as="geometry" />
        </mxCell>
        <mxCell id="XnaCu03kMr7z5BegtF6O-8" value="+ Point(): Point&lt;div&gt;+ Point(x: double, y: double): Point&lt;/div&gt;&lt;div&gt;&lt;br&gt;&lt;/div&gt;&lt;div&gt;+ getX(): double&lt;/div&gt;&lt;div&gt;+ getY(): double&lt;/div&gt;&lt;div&gt;&lt;br&gt;&lt;/div&gt;&lt;div&gt;+ input(): void&lt;/div&gt;&lt;div&gt;+ output(): void&lt;/div&gt;&lt;div&gt;+ distance(point: Point): double&lt;/div&gt;&lt;div&gt;+&amp;nbsp;&lt;span style=&quot;background-color: initial;&quot;&gt;distanceToOx(): double&lt;/span&gt;&lt;/div&gt;&lt;div&gt;&lt;span style=&quot;background-color: initial;&quot;&gt;+&amp;nbsp;&lt;/span&gt;&lt;span style=&quot;background-color: initial;&quot;&gt;distanceToOy(): double&lt;/span&gt;&lt;/div&gt;" style="text;strokeColor=none;fillColor=none;align=left;verticalAlign=top;spacingLeft=4;spacingRight=4;overflow=hidden;rotatable=0;points=[[0,0.5],[1,0.5]];portConstraint=eastwest;whiteSpace=wrap;html=1;" vertex="1" parent="XnaCu03kMr7z5BegtF6O-5">
          <mxGeometry y="78" width="200" height="172" as="geometry" />
        </mxCell>
      </root>
    </mxGraphModel>
  </diagram>
  <diagram id="NPgG1Dgcb46q9W4nAPOs" name="Ex3_LinkedListQueue ">
    <mxGraphModel dx="302" dy="918" grid="1" gridSize="10" guides="1" tooltips="1" connect="1" arrows="1" fold="1" page="0" pageScale="1" pageWidth="850" pageHeight="1100" math="0" shadow="0">
      <root>
        <mxCell id="0" />
        <mxCell id="1" parent="0" />
        <mxCell id="XgJvIqZEHtsm8HV0wVoD-2" value="" style="group" vertex="1" connectable="0" parent="1">
          <mxGeometry x="150" y="-10" width="190" height="200" as="geometry" />
        </mxCell>
        <mxCell id="myrrFzfkgvOB89NJChDJ-2" value="" style="rounded=0;whiteSpace=wrap;html=1;fillColor=none;" vertex="1" parent="XgJvIqZEHtsm8HV0wVoD-2">
          <mxGeometry width="190" height="200" as="geometry" />
        </mxCell>
        <mxCell id="myrrFzfkgvOB89NJChDJ-3" value="Node" style="swimlane;fontStyle=1;align=center;verticalAlign=top;childLayout=stackLayout;horizontal=1;startSize=26;horizontalStack=0;resizeParent=1;resizeParentMax=0;resizeLast=0;collapsible=1;marginBottom=0;whiteSpace=wrap;html=1;" vertex="1" parent="XgJvIqZEHtsm8HV0wVoD-2">
          <mxGeometry x="10" y="10" width="170" height="180" as="geometry" />
        </mxCell>
        <mxCell id="myrrFzfkgvOB89NJChDJ-4" value="+ key: int&lt;div&gt;+ next: Node*&lt;/div&gt;" style="text;strokeColor=none;fillColor=none;align=left;verticalAlign=top;spacingLeft=4;spacingRight=4;overflow=hidden;rotatable=0;points=[[0,0.5],[1,0.5]];portConstraint=eastwest;whiteSpace=wrap;html=1;" vertex="1" parent="myrrFzfkgvOB89NJChDJ-3">
          <mxGeometry y="26" width="170" height="44" as="geometry" />
        </mxCell>
        <mxCell id="myrrFzfkgvOB89NJChDJ-5" value="" style="line;strokeWidth=1;fillColor=none;align=left;verticalAlign=middle;spacingTop=-1;spacingLeft=3;spacingRight=3;rotatable=0;labelPosition=right;points=[];portConstraint=eastwest;strokeColor=inherit;" vertex="1" parent="myrrFzfkgvOB89NJChDJ-3">
          <mxGeometry y="70" width="170" height="8" as="geometry" />
        </mxCell>
        <mxCell id="myrrFzfkgvOB89NJChDJ-6" value="+ Node(data: int): Node&lt;div&gt;&lt;br&gt;&lt;/div&gt;&lt;div&gt;+ setNext(node: Node*): void&lt;/div&gt;&lt;div&gt;&lt;br&gt;&lt;/div&gt;&lt;div&gt;+ getKey(): int&lt;/div&gt;&lt;div&gt;+ getNext(): Node*&lt;/div&gt;" style="text;strokeColor=none;fillColor=none;align=left;verticalAlign=top;spacingLeft=4;spacingRight=4;overflow=hidden;rotatable=0;points=[[0,0.5],[1,0.5]];portConstraint=eastwest;whiteSpace=wrap;html=1;" vertex="1" parent="myrrFzfkgvOB89NJChDJ-3">
          <mxGeometry y="78" width="170" height="102" as="geometry" />
        </mxCell>
        <mxCell id="XgJvIqZEHtsm8HV0wVoD-9" value="" style="group" vertex="1" connectable="0" parent="1">
          <mxGeometry x="150" y="230" width="160" height="270" as="geometry" />
        </mxCell>
        <mxCell id="XgJvIqZEHtsm8HV0wVoD-4" value="" style="rounded=0;whiteSpace=wrap;html=1;fillColor=none;" vertex="1" parent="XgJvIqZEHtsm8HV0wVoD-9">
          <mxGeometry width="160" height="270" as="geometry" />
        </mxCell>
        <mxCell id="XgJvIqZEHtsm8HV0wVoD-5" value="LinkedListQueue&amp;nbsp;" style="swimlane;fontStyle=1;align=center;verticalAlign=top;childLayout=stackLayout;horizontal=1;startSize=26;horizontalStack=0;resizeParent=1;resizeParentMax=0;resizeLast=0;collapsible=1;marginBottom=0;whiteSpace=wrap;html=1;" vertex="1" parent="XgJvIqZEHtsm8HV0wVoD-9">
          <mxGeometry x="10" y="10" width="140" height="250" as="geometry" />
        </mxCell>
        <mxCell id="XgJvIqZEHtsm8HV0wVoD-6" value="+ head: Node*&lt;div&gt;+ tail: Node*&lt;/div&gt;&lt;div&gt;+ capacity: int&lt;/div&gt;&lt;div&gt;+ num: int&lt;/div&gt;" style="text;strokeColor=none;fillColor=none;align=left;verticalAlign=top;spacingLeft=4;spacingRight=4;overflow=hidden;rotatable=0;points=[[0,0.5],[1,0.5]];portConstraint=eastwest;whiteSpace=wrap;html=1;" vertex="1" parent="XgJvIqZEHtsm8HV0wVoD-5">
          <mxGeometry y="26" width="140" height="74" as="geometry" />
        </mxCell>
        <mxCell id="XgJvIqZEHtsm8HV0wVoD-7" value="" style="line;strokeWidth=1;fillColor=none;align=left;verticalAlign=middle;spacingTop=-1;spacingLeft=3;spacingRight=3;rotatable=0;labelPosition=right;points=[];portConstraint=eastwest;strokeColor=inherit;" vertex="1" parent="XgJvIqZEHtsm8HV0wVoD-5">
          <mxGeometry y="100" width="140" height="8" as="geometry" />
        </mxCell>
        <mxCell id="XgJvIqZEHtsm8HV0wVoD-8" value="+ init(capacity): void&lt;div&gt;+ enqueue (int x): void&lt;/div&gt;&lt;div&gt;+ dequeue(): int&lt;/div&gt;&lt;div&gt;+ peek(): int&lt;/div&gt;&lt;div&gt;+ isEmpty(): bool&lt;/div&gt;&lt;div&gt;+ isFull(): bool&lt;/div&gt;&lt;div&gt;+ clear(): void&lt;/div&gt;&lt;div&gt;+ output(): void&lt;/div&gt;&lt;div&gt;+ status(): void&lt;/div&gt;" style="text;strokeColor=none;fillColor=none;align=left;verticalAlign=top;spacingLeft=4;spacingRight=4;overflow=hidden;rotatable=0;points=[[0,0.5],[1,0.5]];portConstraint=eastwest;whiteSpace=wrap;html=1;" vertex="1" parent="XgJvIqZEHtsm8HV0wVoD-5">
          <mxGeometry y="108" width="140" height="142" as="geometry" />
        </mxCell>
      </root>
    </mxGraphModel>
  </diagram>
</mxfile>
